# xmcd
#
# Track frame offsets:
# 150
# 20431
# 41258
# 55546
# 75677
# 96069
# 112514
# 128902
# 144464
# 158986
# 169270
# 184963
# 202453
# 222519
# 240910
# 258727
#
# Disc length: 3656 seconds
#
# Revision: 0
# Processed by: cddbd v1.5.1PL0 Copyright (c) Steve Scherf et al.
# Submitted via: Audion 3.0.2 (http://www.panic.com/audion/)
#
DISCID=db0e4610
DTITLE=red tent - disc 4
DYEAR=1900
DGENRE=
TTITLE0=chapter
TTITLE1=chapter
TTITLE2=chapter
TTITLE3=chapter
TTITLE4=chapter
TTITLE5=chapter
TTITLE6=chapter
TTITLE7=chapter
TTITLE8=chapter
TTITLE9=chapter
TTITLE10=chapter
TTITLE11=chapter
TTITLE12=chapter
TTITLE13=chapter
TTITLE14=chapter
TTITLE15=chapter
EXTD=
EXTT0=
EXTT1=
EXTT2=
EXTT3=
EXTT4=
EXTT5=
EXTT6=
EXTT7=
EXTT8=
EXTT9=
EXTT10=
EXTT11=
EXTT12=
EXTT13=
EXTT14=
EXTT15=
PLAYORDER=
